<?xml version="1.0" encoding="utf-8"?>
<!-- Generator: Adobe Illustrator 22.1.0, SVG Export Plug-In . SVG Version: 6.00 Build 0)  -->
<svg version="1.1" xmlns="http://www.w3.org/2000/svg" xmlns:xlink="http://www.w3.org/1999/xlink" x="0px" y="0px"
	 viewBox="0 0 495 800" style="enable-background:new 0 0 495 800;" xml:space="preserve">
<style type="text/css">
	.st0{fill:#FAEDD3;}
	.st1{fill:#EEC36B;}
	.st2{fill:#812124;}
	.st3{fill:#65191A;}
	.st4{opacity:0.1;}
	.st5{fill:#000100;}
	.st6{fill:#FFFCE3;}
	.st7{fill:#B5252B;}
	.st8{fill:#EBB95C;}
</style>
<g id="BG">
</g>
<g id="Object">
	<g>
		<g>
			<path class="st0" d="M342.1,180.8c5,0.6,10.3-0.2,15.2-2.6c13.2-6.5,18.4-22,11.7-34.8c-5.9-11.4-19.3-16.6-31.5-13.1
				c-0.3-4.1-1.4-8.3-3.4-12.2c-8.1-15.5-27.6-21.6-43.5-13.8c-15.9,7.8-22.3,26.7-14.2,42.2c2.5,4.7,6,8.6,10.2,11.4
				c-7.5,9-9.3,21.8-3.5,32.8c7.8,15,26.7,21,42.2,13.4C334.8,199.4,340.8,190.5,342.1,180.8z"/>
			<path class="st1" d="M325.1,204.1c9.6-4.7,15.7-13.6,16.9-23.3c5,0.6,10.3-0.2,15.2-2.6c7.9-3.9,12.9-11,14.3-18.9
				c-3,3.5-6.8,6.5-11.3,8.7c-9.8,4.8-20.7,4.9-30.1,1.1c-2.4,9.6-8.9,18.1-18.7,22.9c-8.4,4.1-17.6,4.8-26,2.5
				C294.1,206.7,311.1,211,325.1,204.1z"/>
		</g>
		<g>
			<path class="st0" d="M251.6,155.3c2.5,0.1,5-0.2,7.5-0.7c16.1-3.5,26.2-19,22.6-34.6c-3.4-14.5-17.6-24-32.5-22.3
				c0.2-2.4,0.1-4.9-0.5-7.4c-3-12.8-16.1-20.8-29.4-17.9c-13.2,2.9-21.5,15.6-18.6,28.3c-8.5,3.2-13.6,12-11.6,20.8
				c2.1,8.9,10.7,14.8,19.9,14c-5.1,5.5-7.5,13.3-5.7,21.1c3,12.8,16.1,20.8,29.4,17.9C242.8,172.3,250,164.5,251.6,155.3z
				 M222.7,128c-0.1,0-0.1,0-0.2,0c0.1-0.1,0.1-0.1,0.2-0.2C222.7,127.9,222.7,127.9,222.7,128z"/>
			<g>
				<path class="st1" d="M232.8,174.5c10-2.2,17.2-10,18.8-19.1c2.5,0.1,5-0.2,7.5-0.7c16.1-3.5,26.2-19,22.6-34.6
					c-0.8-3.4-2.2-6.6-4.1-9.3c0.2,0.5,0.3,1.1,0.4,1.6c3.3,14.2-5.9,28.3-20.6,31.5c-5.8,1.3-11.7,0.6-16.8-1.5
					c2.8,13-5.7,25.8-19.1,28.7c-1.5,0.3-3.1,0.5-4.6,0.6c-0.5,0.2-1,0.4-1.5,0.6C220.7,174.8,226.7,175.8,232.8,174.5z"/>
			</g>
		</g>
		<g>
			<path class="st2" d="M487.8,255.2c0-13.3-11.1-24.1-24.8-24.1c-12,0-22,8.2-24.4,19.2c-1.7-11.7-12-20.7-24.6-20.7
				c-13.7,0-24.9,10.8-24.9,24.1c0,0.3,0,0.5,0,0.8h0c0-0.5,0-0.7,0-0.8c0-13.1-10.9-23.4-24.4-23.4c-13.5,0-24.5,10.6-24.5,23.7
				c0,0.1,0,0.3,0,0.4h0c0-0.3,0-0.5,0-0.8c0-13.3-11.1-24.1-24.8-24.1c-13.7,0-24.9,10.8-24.9,24.1c0,0.3,0,0.5,0,0.8h0
				c0-0.2,0-0.4,0-0.4c0-13.1-10.9-23.7-24.4-23.8c-13.5,0-24.5,10.6-24.5,23.7c0,0.1,0,0.3,0,0.4h0c0-0.3,0-0.5,0-0.8
				c0-13.3-11.1-24.1-24.8-24.1c-13.7,0-24.9,10.8-24.9,24.1c0,0.3,0,0.5,0,0.8h0c0-0.1,0-0.3,0-0.4c0-13.1-10.9-23.7-24.4-23.8
				c-13.5,0-24.5,10.6-24.5,23.7c0,0,0,0.2,0,0.4h0c0-0.3,0-0.5,0-0.8c0-13.3-11.1-24.1-24.8-24.1c-13.7,0-24.9,10.8-24.9,24.1
				c0,0.3,0,0.5,0,0.8h0c0-0.1,0-0.2,0-0.4c0-13.1-10.9-23.7-24.4-23.8c-13.5,0-24.5,10.6-24.5,23.7c0,1.8,26.8,411.5,32.6,500.5
				c0,0,0,0,0,0l0.9,12.7c0.2,2.8,0.3,4.2,0.3,4.2l42,0.1l0-0.1l42,0.1c0,0.1,0,0.1,0,0.1l41.2,0.1l0-0.1l42,0.1l0,0.1l42,0.1
				c0,0,0,0,0-0.1l42,0.1l0,0.1l42,0.1c0,0,0,0,0-0.1l42,0.1l0,0.1l41.2,0.1c0,0,0,0,0-0.1l0.1,0l0-0.2h0.2l19.9-308.3c0,0,0,0,0,0
				C481.5,353.1,487.8,256.1,487.8,255.2z"/>
			<polygon class="st3" points="455.9,771.1 424,799.6 457.5,283.8 487.8,258.2 			"/>
		</g>
		<g>
			<path class="st0" d="M355.1,205.4c-0.9-5.7-3.4-11.1-7.6-15.7c-11.5-12.4-31.1-13.4-43.9-2.3c-11.4,9.9-13.5,26.1-5.7,38.3
				c-4.7,1.5-9.2,4-13.1,7.4c-15.5,13.5-16.8,36.6-2.9,51.6c13.9,15,37.7,16.3,53.2,2.8c4.7-4.1,8.1-9.1,10.2-14.6
				c12.7,5.4,28.1,3.5,39.1-6c15-13,16.3-35.4,2.8-50C378.8,207.7,366.7,203.8,355.1,205.4z"/>
			<path class="st1" d="M387.2,216.8c-8.4-9.1-20.5-13-32.1-11.5c-0.9-5.7-3.4-11.1-7.6-15.7c-6.9-7.4-16.7-10.8-26.2-9.9
				c5,2.3,9.6,5.5,13.5,9.7c8.5,9.2,11.9,21.1,10.3,32.5c11.8-0.3,23.7,4.3,32.2,13.5c7.3,7.9,10.8,17.8,10.7,27.6
				C399.5,249.8,399.5,230.1,387.2,216.8z"/>
		</g>
		<g>
			<path class="st0" d="M226,316.8c5.7,1.6,11.9,1.6,17.9-0.2c16.4-5,25.4-22,20.2-37.8c-4.6-14.1-19-22.6-33.6-20.8
				c0.5-4.8,0-9.8-1.6-14.6c-6.3-19.2-27.5-29.9-47.3-23.8c-19.8,6.1-30.8,26.6-24.5,45.9c1.9,5.9,5.2,11,9.5,15
				c-10.3,9-14.9,23.3-10.4,37c6.1,18.6,26.6,29,45.8,23.1C214,336.8,222.6,327.7,226,316.8z"/>
			<path class="st1" d="M202,340.5c12-3.7,20.6-12.8,24-23.7c5.7,1.6,11.9,1.6,17.9-0.2c9.8-3,17-10.3,20.1-19.1
				c-4.2,3.5-9.1,6.2-14.7,8c-12.2,3.7-24.7,1.8-34.8-4.2c-4.6,10.5-13.8,19.1-25.9,22.9c-10.4,3.2-21.2,2.2-30.4-1.9
				C165.9,337.8,184.5,345.9,202,340.5z"/>
		</g>
		<g>
			<path class="st0" d="M119.2,220.1c0.8-3,1.3-6.2,1.3-9.5c0-21-17.5-38.1-39.2-38.1c-20.2,0-36.9,14.8-39.1,33.8
				c-3.1-1-6.5-1.5-9.9-1.5C14.5,204.7,0,218.7,0,236c0,17.2,14.3,31.2,32.1,31.3c1.7,11.5,11.9,20.4,24.2,20.4
				c12.4,0,22.7-9,24.3-20.6c5.8,7.9,15.4,13.1,26.2,13.1c17.8,0,32.3-13.9,32.3-31.2C139.1,236,130.9,224.8,119.2,220.1z M74.6,248
				c0,0.1,0,0.1,0,0.2c-0.1-0.1-0.2-0.2-0.2-0.3C74.4,247.9,74.5,248,74.6,248z"/>
			<g>
				<path class="st1" d="M139,249c0-13-8.2-24.2-19.8-28.9c0.8-3,1.3-6.2,1.3-9.5c0-21-17.5-38.1-39.2-38.1c-4.8,0-9.3,0.8-13.5,2.3
					c0.8,0,1.5-0.1,2.3-0.1c19.7,0,35.7,15.6,35.7,34.7c0,7.6-2.6,14.6-6.9,20.3c18,0.3,32.4,14.5,32.4,32c0,2-0.2,3.9-0.6,5.8
					c0.1,0.7,0.2,1.3,0.3,2C136,264.1,139,256.9,139,249z"/>
			</g>
		</g>
		<g>
			<path class="st0" d="M285.5,212.8c0.8-3,1.3-6.2,1.3-9.5c0-21-17.5-38.1-39.2-38.1c-20.2,0-36.9,14.8-39.1,33.8
				c-3.1-1-6.5-1.5-9.9-1.5c-17.8,0-32.3,13.9-32.3,31.2c0,17.2,14.3,31.2,32.1,31.3c1.7,11.5,11.9,20.4,24.2,20.4
				c12.4,0,22.7-9,24.3-20.6c5.8,7.9,15.4,13.1,26.2,13.1c17.8,0,32.3-13.9,32.3-31.2C305.3,228.7,297.1,217.5,285.5,212.8z
				 M240.8,240.7c0,0.1,0,0.1,0,0.2c-0.1-0.1-0.2-0.2-0.2-0.3C240.7,240.7,240.8,240.7,240.8,240.7z"/>
			<g>
				<path class="st1" d="M305.3,241.7c0-13-8.2-24.2-19.8-28.9c0.8-3,1.3-6.2,1.3-9.5c0-21-17.5-38.1-39.2-38.1
					c-4.8,0-9.3,0.8-13.5,2.3c0.8,0,1.5-0.1,2.3-0.1c19.7,0,35.7,15.6,35.7,34.7c0,7.6-2.6,14.6-6.9,20.3c18,0.3,32.4,14.5,32.4,32
					c0,2-0.2,3.9-0.6,5.8c0.1,0.7,0.2,1.3,0.3,2C302.2,256.8,305.3,249.6,305.3,241.7z"/>
			</g>
		</g>
		<g>
			<path class="st0" d="M191.7,149.2c1.4-2.5,2.5-5.1,3.3-8c4.9-18.2-6.3-36.7-25-41.5c-17.5-4.4-35.3,4.7-41.6,20.7
				c-2.5-1.5-5.2-2.7-8.2-3.5c-15.4-3.9-31.1,5-35.2,19.9c-4,14.9,5.1,30.1,20.4,34.1c-1.2,10.3,5.5,20.2,16.2,22.9
				c10.7,2.7,21.7-2.8,25.8-12.5c3.2,8.1,10.3,14.7,19.6,17.1c15.4,3.9,31.1-5,35.2-19.9C205.2,167.3,200.7,155.8,191.7,149.2z
				 M146.6,163.6c0,0.1,0,0.1-0.1,0.2c0-0.1-0.1-0.2-0.1-0.3C146.5,163.5,146.5,163.5,146.6,163.6z"/>
			<g>
				<path class="st1" d="M202.1,178.5c3-11.3-1.4-22.7-10.4-29.3c1.4-2.5,2.5-5.1,3.3-8c4.9-18.2-6.3-36.7-25-41.5
					c-4.1-1-8.2-1.3-12.2-1c0.7,0.1,1.3,0.3,2,0.4c17.1,4.3,27.3,21.3,22.8,37.8c-1.8,6.6-5.6,12.1-10.7,16.1
					c15.5,4.2,24.7,19.7,20.6,34.8c-0.5,1.7-1.1,3.4-1.9,4.9c-0.1,0.6-0.1,1.2-0.2,1.8C196,190.9,200.3,185.4,202.1,178.5z"/>
			</g>
		</g>
		<g>
			<path class="st0" d="M449.5,220.8c-1.8-6.4-6.1-12.2-12.6-15.7c-12.9-7.1-29.2-2.8-36.6,9.7c-4.8,8.2-4.5,18-0.1,25.7
				c-6.3,3.1-11.7,8-15.4,14.3c-10.3,17.5-4,39.8,14,49.8c18.1,10,41.1,3.9,51.4-13.6c2.2-3.7,3.6-7.5,4.3-11.4
				c13.8,3.5,28.8-2.2,36.1-14.8c8.8-15,3.4-34.1-12-42.6C469.5,217,458.6,216.8,449.5,220.8z"/>
			<path class="st1" d="M449.5,220.8c-1.8-6.4-6.1-12.2-12.6-15.7c-9.3-5.2-20.5-4.3-28.7,1.3c6.7-1.6,14-0.8,20.5,2.8
				c10.1,5.6,15.2,16.3,13.9,26.9c8.5-5.2,19.5-5.8,28.8-0.6c13.4,7.4,18.1,24,10.4,37c-0.8,1.4-1.7,2.7-2.8,3.9
				c4.7-2.7,8.8-6.5,11.7-11.5c8.8-15,3.4-34.1-12-42.6C469.5,217,458.6,216.8,449.5,220.8z"/>
		</g>
		<g>
			<path class="st0" d="M173.9,291.9c5.7,1.6,11.9,1.6,17.9-0.2c16.4-5,25.4-22,20.2-37.8c-4.6-14.1-19-22.6-33.6-20.8
				c0.5-4.8,0-9.8-1.6-14.6c-6.3-19.2-27.5-29.9-47.3-23.8c-19.8,6.1-30.8,26.6-24.5,45.9c1.9,5.9,5.2,11,9.5,15
				c-10.3,9-14.9,23.4-10.4,37c6.1,18.6,26.6,29,45.8,23.1C162,311.9,170.6,302.8,173.9,291.9z"/>
			<path class="st1" d="M150,315.6c12-3.7,20.6-12.8,24-23.7c5.7,1.6,11.9,1.6,17.9-0.2c9.8-3,17-10.3,20.1-19.1
				c-4.2,3.5-9.1,6.2-14.7,8c-12.2,3.7-24.7,1.8-34.8-4.2c-4.6,10.5-13.8,19.1-25.9,22.9c-10.4,3.2-21.2,2.2-30.4-1.9
				C113.9,312.9,132.4,321,150,315.6z"/>
		</g>
		<g class="st4">
			<path class="st5" d="M462.9,275.4c0-13.3-11.1-24.1-24.8-24.1c-12,0-22,8.2-24.4,19.2c-1.7-11.7-12-20.7-24.6-20.7
				c-13.7,0-24.9,10.8-24.9,24.1c0,0.3,0,0.5,0,0.8h0c0-0.5,0-0.7,0-0.8c0-13.1-10.9-23.4-24.4-23.4c-13.5,0-24.5,10.6-24.5,23.7
				c0,0.1,0,0.3,0,0.4h0c0-0.3,0-0.5,0-0.8c0-13.3-11.1-24.1-24.8-24.1c-13.7,0-24.9,10.8-24.9,24.1c0,0.3,0,0.5,0,0.8l0,0
				c0-0.2,0-0.4,0-0.4c0-13.1-10.9-23.7-24.4-23.8c-13.5,0-24.5,10.6-24.5,23.7c0,0.1,0,0.3,0,0.4h0c0-0.3,0-0.5,0-0.8
				c0-13.3-11.1-24.1-24.8-24.1c-13.7,0-24.9,10.8-24.9,24.1c0,0.3,0,0.5,0,0.8h0c0-0.1,0-0.3,0-0.4c0-13.1-10.9-23.7-24.4-23.8
				c-13.5,0-24.5,10.6-24.5,23.7c0,0,0,0.2,0,0.4h0c0-0.3,0-0.5,0-0.8c0-13.3-11.1-24.1-24.8-24.1c-13.7,0-24.9,10.8-24.9,24.1
				c0,0.3,0,0.5,0,0.8h0c0-0.1,0-0.2,0-0.4c0-13.1-10.9-23.7-24.4-23.8c-13.5,0-24.5,10.6-24.5,23.7c0,1.8,26.8,411.5,32.6,500.5
				c0,0,0,0,0,0l0.9,12.7c0.2,2.8,0.3,4.2,0.3,4.2l42,0.1l0-0.1l42,0.1c0,0.1,0,0.1,0,0.1l41.2,0.1l0-0.1l42,0.1l0,0.1l42,0.1
				c0,0,0-0.1,0-0.1l42,0.1l0,0.1l42,0.1c0,0,0-0.1,0-0.1l42,0.1l0,0.1l41.2,0.1c0,0,0-0.1,0-0.1h0.1l0-0.2h0.2L449.3,483
				c0,0,0,0,0,0C456.5,373.3,462.9,276.3,462.9,275.4z"/>
		</g>
		<g>
			<path class="st6" d="M408.5,282.9c0-0.3,0-0.5,0-0.8c0-13.3-11.1-24.1-24.8-24.1c-13.7,0-24.9,10.8-24.9,24.1c0,0.3,0,0.5,0,0.8
				l-49-0.1c0-0.3,0-0.5,0-0.8c0-13.3-11.1-24.1-24.8-24.1c-13.7,0-24.9,10.8-24.9,24.1c0,0.3,0,0.5,0,0.8l-49-0.1
				c0-0.3,0-0.5,0-0.8c0-13.3-11.1-24.1-24.8-24.1c-13.7,0-24.9,10.8-24.9,24.1c0,0.3,0,0.5,0,0.8l-49-0.1c0-0.3,0-0.5,0-0.8
				c0-13.3-11.1-24.1-24.8-24.1c-13.7,0-24.9,10.8-24.9,24.1c0,0.3,0,0.5,0,0.8l-48.3-0.1l33.9,517l375.3,0.6L456.9,283L408.5,282.9
				z"/>
			<g>
				<path class="st7" d="M62.8,282.8c0-0.3,0-0.5,0-0.8c0-13.1-10.9-23.7-24.4-23.8c-13.5,0-24.5,10.6-24.5,23.7
					c0,2,33.7,517.5,33.7,517.5l42,0.1L62.8,282.8z"/>
				<path class="st7" d="M161.5,282.9c0-0.3,0-0.5,0-0.8c0-13.1-10.9-23.7-24.4-23.8c-13.5,0-24.5,10.6-24.5,23.7
					c0,1.7,19,517.5,19,517.5l41.2,0.1L161.5,282.9z"/>
				<path class="st7" d="M235.7,258.6c-13.5,0-24.5,10.6-24.5,23.7c0,0.3,0,0.5,0,0.8l3.4,516.7l42,0.1c0,0,3.6-516,3.6-517.4
					C260.2,269.2,249.3,258.6,235.7,258.6z"/>
				<path class="st7" d="M334.4,258.7c-13.5,0-24.5,10.6-24.5,23.7c0,0.3,0,0.5,0,0.8l-11.4,516.7l42,0.1c0,0,18.3-516.1,18.3-517.8
					C358.9,269,347.9,258.7,334.4,258.7z"/>
				<path class="st7" d="M457.5,283.8c0-13.3-11.1-24.1-24.8-24.1c-13.6,0-24.7,10.5-24.9,23.7l-25.3,516.6l41.2,0.1
					C423.6,800,457.5,285.8,457.5,283.8z"/>
			</g>
			<g class="st4">
				
					<ellipse transform="matrix(1.441261e-03 -1 1 1.441261e-03 -300.3557 771.4131)" class="st5" cx="236.1" cy="536.1" rx="108.1" ry="155"/>
			</g>
			<path class="st8" d="M390.2,529.6c-0.1,59.7-69.6,108-155.2,107.8c-85.6-0.1-154.9-48.6-154.8-108.3
				c0.1-59.7,69.6-108,155.2-107.8C321,421.4,390.3,469.9,390.2,529.6z"/>
			<g class="st4">
				<path class="st5" d="M444,491.3c0,0-88,246-397.5,291.2l1.1,16.6l376.4,0.6L444,491.3z"/>
			</g>
		</g>
		<g>
			<path class="st0" d="M393.2,210c1.1,4.8,3.6,9.4,7.5,13.1c10.6,10,27.5,9.8,37.9-0.4c9.2-9.1,10.1-23.2,2.7-33.2
				c4-1.6,7.7-3.9,10.8-7.1c12.5-12.4,12.3-32.4-0.5-44.5c-12.8-12.2-33.4-11.9-45.9,0.5c-3.8,3.8-6.5,8.3-7.9,13.1
				c-11.3-4-24.4-1.5-33.3,7.3c-12.2,12.1-11.9,31.4,0.5,43.2C372.7,209.3,383.3,211.9,393.2,210z"/>
			<path class="st1" d="M364.9,201.9c7.8,7.3,18.4,10,28.3,8.1c1.1,4.8,3.6,9.4,7.5,13.1c6.3,6,15,8.3,23.1,7
				c-4.4-1.7-8.6-4.2-12.2-7.6c-7.9-7.4-11.5-17.5-10.8-27.4c-10.2,0.9-20.6-2.4-28.5-9.8c-6.7-6.4-10.4-14.7-10.8-23.2
				C352.4,174.2,353.6,191.2,364.9,201.9z"/>
		</g>
		<g>
			<path class="st0" d="M348.3,91.7c1.3,4.2,3.7,8,7.4,11c9.9,8.1,24.8,6.9,33.1-2.7c7.5-8.6,7.3-20.9,0.1-29.3
				c3.4-1.6,6.4-3.9,9-6.9c10.2-11.7,8.6-29.1-3.4-39c-12-9.8-30-8.4-40.2,3.3c-3.1,3.6-5.1,7.7-6.1,12c-10.1-2.8-21.4,0.2-28.7,8.5
				c-9.8,11.3-8.3,28.2,3.3,37.8C330.3,92.3,339.8,94,348.3,91.7z"/>
			<path class="st1" d="M323,86.4c7.3,5.9,16.8,7.6,25.3,5.3c1.3,4.2,3.7,8,7.4,11c6,4.9,13.7,6.4,20.7,4.7c-4-1.2-7.8-3.1-11.2-5.9
				c-7.4-6-11.2-14.6-11.3-23.3c-8.8,1.4-18.2-0.8-25.6-6.8c-6.3-5.2-10-12.2-11-19.6C310.2,62.9,312.3,77.7,323,86.4z"/>
		</g>
		<g>
			<path class="st0" d="M100.5,83.5c2.5,0.1,5-0.2,7.5-0.7c16.1-3.5,26.2-19,22.6-34.6c-3.4-14.5-17.6-24-32.5-22.3
				c0.2-2.4,0.1-4.9-0.5-7.4C94.6,5.7,81.5-2.3,68.2,0.6C55,3.5,46.7,16.2,49.6,28.9c-8.5,3.2-13.6,12-11.6,20.8
				c2.1,8.9,10.7,14.8,19.9,14c-5.1,5.5-7.5,13.3-5.7,21.1c3,12.8,16.1,20.8,29.4,17.9C91.7,100.5,98.9,92.7,100.5,83.5z M71.6,56.2
				c-0.1,0-0.1,0-0.2,0c0.1-0.1,0.1-0.1,0.2-0.2C71.6,56.1,71.6,56.1,71.6,56.2z"/>
			<g>
				<path class="st1" d="M81.7,102.7c10-2.2,17.2-10,18.8-19.1c2.5,0.1,5-0.2,7.5-0.7c16.1-3.5,26.2-19,22.6-34.6
					c-0.8-3.4-2.2-6.6-4.1-9.3c0.2,0.5,0.3,1.1,0.4,1.6c3.3,14.2-5.9,28.3-20.6,31.5c-5.8,1.3-11.7,0.6-16.8-1.5
					c2.8,13-5.7,25.8-19.1,28.7c-1.5,0.3-3.1,0.5-4.6,0.6c-0.5,0.2-1,0.4-1.5,0.6C69.6,103,75.6,104,81.7,102.7z"/>
			</g>
		</g>
	</g>
</g>
</svg>
